HIERARCHY
ROOT root
{
	OFFSET	0	13.1	24.9
	CHANNELS 6  Xposition Yposition Zposition Xrotation Yrotation Zrotation
	JOINT spine_1
	{
		OFFSET	0	9.99999	0
		CHANNELS 3  Xrotation Yrotation Zrotation
		JOINT spine_2
		{
			OFFSET	0	112	-10
			CHANNELS 3  Xrotation Yrotation Zrotation
			JOINT spine_3
			{
				OFFSET	0	206.5	19.3
				CHANNELS 3  Xrotation Yrotation Zrotation
				JOINT spine_4
				{
					OFFSET	0	110.4	14.6
					CHANNELS 3  Xrotation Yrotation Zrotation
					JOINT neck_1
					{
						OFFSET	0	71.8	-50.3
						CHANNELS 3  Xrotation Yrotation Zrotation
						JOINT neck_2
						{
							OFFSET	0	86.2	-25.8
							CHANNELS 3  Xrotation Yrotation Zrotation
							JOINT head_ee
							{
								OFFSET	0	179.8	-8.7
								CHANNELS 3  Xrotation Yrotation Zrotation
								End Site
								{
									OFFSET	1	0	0
								}
							}
						}
					}
					JOINT left_clavicle
					{
						OFFSET	-43.2	22.4	-70.8
						CHANNELS 3  Xrotation Yrotation Zrotation
						JOINT left_shoulder
						{
							OFFSET	-93.9	-5.79999	48.7
							CHANNELS 3  Xrotation Yrotation Zrotation
							JOINT left_elbow
							{
								OFFSET	-291.4	-30.8	15.2
								CHANNELS 3  Xrotation Yrotation Zrotation
								JOINT left_lowarm_twist
								{
									OFFSET	-110.7	-3.89999	13.6
									CHANNELS 3  Xrotation Yrotation Zrotation
									JOINT left_hand
									{
										OFFSET	-110.7	-3.89999	13.6
										CHANNELS 3  Xrotation Yrotation Zrotation
										JOINT left_ee
										{
											OFFSET	-80.8	-5.10001	12.1
											CHANNELS 3  Xrotation Yrotation Zrotation
											End Site
											{
												OFFSET	1	0	0
											}
										}
									}
								}
							}
						}
					}
					JOINT right_clavicle
					{
						OFFSET	43.2	22.4	-70.8
						CHANNELS 3  Xrotation Yrotation Zrotation
						JOINT right_shoulder
						{
							OFFSET	93.9	-5.79999	48.7
							CHANNELS 3  Xrotation Yrotation Zrotation
							JOINT right_elbow
							{
								OFFSET	291.4	-30.8	15.2
								CHANNELS 3  Xrotation Yrotation Zrotation
								JOINT right_lowarm_twist
								{
									OFFSET	110.7	-3.89999	13.6
									CHANNELS 3  Xrotation Yrotation Zrotation
									JOINT right_hand
									{
										OFFSET	110.7	-3.89999	13.6
										CHANNELS 3  Xrotation Yrotation Zrotation
										JOINT right_ee
										{
											OFFSET	80.8	-5.10001	12.1
											CHANNELS 3  Xrotation Yrotation Zrotation
											End Site
											{
												OFFSET	1	0	0
											}
										}
									}
								}
							}
						}
					}
				}
			}
		}
	}
	JOINT left_hip
	{
		OFFSET	-82.8	-127.5	0.300001
		CHANNELS 3  Xrotation Yrotation Zrotation
		JOINT left_knee
		{
			OFFSET	-28.2	-396.7	2.2
			CHANNELS 3  Xrotation Yrotation Zrotation
			JOINT left_ankle
			{
				OFFSET	-11.7	-411.3	35.4
				CHANNELS 3  Xrotation Yrotation Zrotation
				JOINT left_toes
				{
					OFFSET	0	-60	-88.6
					CHANNELS 3  Xrotation Yrotation Zrotation
					JOINT left_foot_ee
					{
						OFFSET	-22.5	-16.5	-42.2
						CHANNELS 3  Xrotation Yrotation Zrotation
						End Site
						{
							OFFSET	1	0	0
						}
					}
				}
			}
		}
	}
	JOINT right_hip
	{
		OFFSET	82.8	-127.5	0.300001
		CHANNELS 3  Xrotation Yrotation Zrotation
		JOINT right_knee
		{
			OFFSET	28.2	-396.7	2.2
			CHANNELS 3  Xrotation Yrotation Zrotation
			JOINT right_ankle
			{
				OFFSET	11.7	-411.3	35.4
				CHANNELS 3  Xrotation Yrotation Zrotation
				JOINT right_toes
				{
					OFFSET	0	-60	-88.6
					CHANNELS 3  Xrotation Yrotation Zrotation
					JOINT right_foot_ee
					{
						OFFSET	22.5	-16.5	-42.2
						CHANNELS 3  Xrotation Yrotation Zrotation
						End Site
						{
							OFFSET	1	0	0
						}
					}
				}
			}
		}
	}
}
MOTION
Frames: 5
Frame Time: 0.02
2408.56 646.493 -876.533 -16.8945 54.8661 18.0935 3.54627 0.105867 -0.391163 3.54634 0.130543 -0.383634 3.54543 0.186365 -0.359839 3.54527 0.127197 -0.384756 -2.65228 7.4526 0.245871 -2.5721 13.3273 1.29694 -0.0 0.0 -0.0 5.3238 16.1492 10.325 -12.4061 15.8592 59.0472 0.206772 -5.84849 0.0105624 0.00727867 0.000256459 -0.000894194 7.80885 -12.4537 54.8311 -0.0 0.0 -0.0 13.0597 26.0851 -25.805 9.33235 6.17296 -55.0193 1.43107 35.3312 -0.455789 14.3263 -0.280555 1.80379 2.89418 20.5925 -10.427 0.0 0.0 0.0 40.1852 4.18251 -11.0221 2.90223 -0.130348 -0.4262 1.35026 -22.4139 -0.229213 -4.9518 0.0 0.0 -0.0 0.0 -0.0 4.66081 -28.1676 4.02165 -26.2243 -0.170069 -3.98578 39.8663 -1.73191 4.85396 8.50567 -0.0 -0.0 0.0 0.0 0.0 
2382.66 647.263 -880.893 -18.3429 56.337 20.2318 3.24951 0.0644542 -0.463999 3.24963 0.0938487 -0.458957 3.24883 0.163605 -0.438957 3.24857 0.0922271 -0.459286 -1.62492 6.69264 -0.0461177 -1.54245 12.0977 0.793366 -0.0 0.0 -0.0 5.89994 15.7137 11.2708 -11.581 15.2474 58.6471 0.199985 -5.65778 0.00988197 0.103162 0.00362328 -0.0126769 7.709 -11.9865 54.1371 -0.0 0.0 -0.0 13.0658 26.4572 -25.7744 9.07168 4.80714 -53.801 1.32377 33.2536 -0.395324 14.9291 -0.282403 1.88077 2.74767 21.2713 -9.11393 0.0 0.0 0.0 40.9977 3.46004 -11.2138 -0.488143 0.0197921 0.0722961 0.493866 -25.0169 -0.0864785 -4.38365 0.0 0.0 -0.0 0.0 -0.0 3.83418 -29.84 4.03379 -26.1316 -0.17269 -3.97181 37.4299 -1.76397 4.63695 8.35418 -0.0 -0.0 0.0 0.0 0.0 
2349.02 648.759 -884.63 -20.1434 58.6341 21.9089 3.24485 -0.0769348 -0.332967 3.24491 -0.0555915 -0.337188 3.24521 -0.00283082 -0.341728 3.24506 -0.0567645 -0.336992 -0.540981 5.17935 -0.847007 -0.467683 9.95143 -0.325735 -0.0 0.0 -0.0 6.45668 15.9829 12.1663 -14.4205 15.1635 58.2668 0.243266 -6.87155 0.0146051 -1.36847 -0.050223 0.167536 7.61852 -11.7676 53.3328 -0.0 0.0 -0.0 12.214 24.3185 -24.0517 7.26762 2.07484 -54.8986 1.30222 32.8238 -0.383574 14.959 -0.282474 1.88459 3.02701 22.6829 -10.2624 0.0 0.0 0.0 41.745 3.34719 -9.58207 -7.01302 0.224576 1.05219 1.57624 -24.9294 -0.274836 -3.409 0.0 0.0 -0.0 0.0 -0.0 2.8531 -28.3501 4.77253 -26.4327 -0.164088 -4.01721 36.1072 -2.70633 4.50977 9.46521 -0.0 -0.0 0.0 0.0 0.0 
2312.99 652.867 -887.766 -18.409 58.3098 20.5396 3.15018 -0.121323 -0.570272 3.15036 -0.0847894 -0.576836 3.15115 0.00630239 -0.583 3.15069 -0.0858492 -0.576679 0.734698 4.92388 -0.89127 0.813757 9.46587 -0.493802 -0.0 0.0 -0.0 6.4486 16.7071 12.1143 -14.9167 16.6903 59.3779 0.222155 -6.28023 0.0121874 -1.49138 -0.0549295 0.182524 7.48762 -11.5758 52.0845 -0.0 0.0 -0.0 12.0297 22.8555 -23.7705 4.31477 1.95918 -54.786 1.28793 32.5364 -0.375856 13.8504 -0.278524 1.74305 2.88941 20.6282 -10.3774 0.0 0.0 0.0 40.9666 3.73003 -10.041 -12.7507 0.311566 1.92795 2.83816 -24.1578 -0.488633 -3.78277 0.0 0.0 -0.0 0.0 -0.0 2.40226 -23.4357 5.49508 -29.4981 -0.0629622 -4.47674 36.0739 -5.1452 4.50158 8.90571 -0.0 -0.0 0.0 0.0 0.0 
2276.91 653.479 -890.341 -16.9446 59.2304 19.1776 3.28552 -0.40173 -0.791225 3.2858 -0.35057 -0.815182 3.2907 -0.221132 -0.85937 3.28985 -0.354074 -0.813666 1.51042 4.01679 -1.0351 1.57424 7.94551 -0.783515 -0.0 0.0 -0.0 6.36633 15.64 12.0359 -14.9059 18.5693 61.3898 0.194793 -5.51182 0.00937679 -1.5847 -0.0585246 0.193898 7.35375 -10.8208 51.283 -0.0 0.0 -0.0 11.6786 20.7958 -23.1395 2.46517 0.138332 -55.6075 1.24197 31.5999 -0.351452 12.9024 -0.272974 1.62209 2.85693 20.1974 -10.373 0.0 0.0 0.0 41.7214 3.3378 -9.65186 -21.8607 0.268891 3.3236 3.18217 -24.273 -0.547948 -2.654 0.0 0.0 -0.0 0.0 -0.0 1.39517 -21.8434 6.52867 -30.476 -0.0255413 -4.62214 36.8797 -5.28836 4.57731 9.0772 -0.0 -0.0 0.0 0.0 0.0 
